<svg width="245" height="51" viewBox="0 0 245 51" fill="none" xmlns="http://www.w3.org/2000/svg">
<path d="M203.605 49.2285V48.2578C203.605 48.0729 203.697 47.9805 203.882 47.9805H204.645C205.616 47.9111 206.61 47.8765 207.626 47.8765C208.643 47.8534 209.568 47.7262 210.4 47.4951C212.295 46.9404 213.243 45.5537 213.243 43.335V6.79492C213.243 4.50684 211.891 3.05078 209.187 2.42676C208.424 2.26497 207.65 2.1263 206.864 2.01074H206.136C205.951 2.01074 205.858 1.91829 205.858 1.7334V0.901367C205.858 0.716471 205.951 0.624023 206.136 0.624023H239.105C239.521 0.624023 239.821 0.704915 240.006 0.866699C240.191 1.00537 240.307 1.32894 240.353 1.8374L240.977 11.8911C240.977 12.1222 240.804 12.2378 240.457 12.2378C240.11 12.2378 239.856 12.1338 239.694 11.9258C239.556 11.6947 239.371 10.8511 239.14 9.39502C238.932 7.93896 238.539 6.72559 237.961 5.75488C237.383 4.78418 236.366 4.17171 234.91 3.91748H220.454C220.153 3.91748 220.003 4.06771 220.003 4.36816V22.2915C220.003 22.5226 220.118 22.6382 220.35 22.6382H232.345C235.442 22.6382 236.99 20.8354 236.99 17.23C236.99 17.0451 237.083 16.9526 237.268 16.9526H238.1C238.285 16.9526 238.377 17.0451 238.377 17.23V32.0679C238.377 32.2528 238.285 32.3452 238.1 32.3452H237.268C237.083 32.3452 236.99 32.2528 236.99 32.0679C236.99 28.6473 235.996 26.6712 234.009 26.1396C233.454 26.001 232.865 25.9316 232.241 25.9316H220.35C220.118 25.9316 220.003 26.0472 220.003 26.2783V43.1616C220.003 44.895 220.8 45.8773 222.395 46.1084C222.857 46.1777 223.343 46.2124 223.851 46.2124H235.396C237.776 46.2124 239.625 45.1608 240.942 43.0576C241.89 41.5553 242.468 39.8335 242.676 37.8921C242.745 37.245 243.092 36.9214 243.716 36.9214C243.993 36.9214 244.132 37.0716 244.132 37.3721L242.988 49.0205C242.849 49.3441 242.687 49.5059 242.502 49.5059H203.882C203.697 49.5059 203.605 49.4134 203.605 49.2285Z" fill="#2D2D2D"/>
<path d="M187.831 6.1709C187.831 3.39746 186.236 2.01074 183.047 2.01074C182.538 2.01074 182.284 1.91829 182.284 1.7334V0.901367C182.284 0.716471 182.377 0.624023 182.562 0.624023H199.93C200.115 0.624023 200.208 0.716471 200.208 0.901367V1.7334C200.208 1.91829 199.699 2.01074 198.682 2.01074C197.665 2.01074 196.729 2.33431 195.874 2.98145C195.019 3.62858 194.591 4.95752 194.591 6.96826V43.959C194.591 46.7324 196.198 48.1191 199.41 48.1191C199.896 48.1191 200.138 48.2116 200.138 48.3965V49.2285C200.138 49.4134 200.046 49.5059 199.861 49.5059H182.492C182.307 49.5059 182.215 49.4134 182.215 49.2285V48.3965C182.215 48.2116 182.723 48.1191 183.74 48.1191C184.757 48.1191 185.693 47.7956 186.548 47.1484C187.403 46.5013 187.831 45.1724 187.831 43.1616V6.1709Z" fill="#2D2D2D"/>
<path d="M122.967 0.797363C122.967 0.612467 123.06 0.52002 123.245 0.52002H124.007L135.136 0.277344C136.476 0.23112 137.932 0.208008 139.504 0.208008H143.837C147.859 0.208008 150.875 0.358236 152.886 0.658691C154.92 0.959147 156.907 1.31738 158.849 1.7334C160.813 2.1263 162.893 3.03923 165.089 4.47217C167.308 5.90511 169.226 7.63851 170.844 9.67236C174.264 14.0174 175.975 18.7091 175.975 23.7476C175.975 28.786 174.657 33.3044 172.022 37.3027C168.232 43.1038 162.743 46.8942 155.555 48.6738C153.267 49.2285 150.921 49.5059 148.518 49.5059H123.245C123.06 49.5059 122.967 49.4134 122.967 49.2285V48.2578C122.967 48.0729 123.06 47.9805 123.245 47.9805H124.007C128.214 47.9805 130.317 46.64 130.317 43.959V5.96289C130.317 4.66862 129.82 3.69792 128.826 3.05078C127.832 2.38053 126.711 2.04541 125.463 2.04541H123.245C123.06 2.04541 122.967 1.95296 122.967 1.76807V0.797363ZM137.944 1.8374C137.366 1.8374 137.077 2.14941 137.077 2.77344V45.1724C137.077 46.8826 138.683 47.7725 141.896 47.8418C142.844 47.8649 143.837 47.8765 144.877 47.8765C152.25 47.8765 158.04 45.8079 162.246 41.6709C166.476 37.5339 168.59 32.0332 168.59 25.1689C168.59 18.2816 166.637 12.6769 162.731 8.35498C158.849 4.00993 153.729 1.8374 147.374 1.8374H137.944Z" fill="#2D2D2D"/>
<path d="M73.9814 49.5059C73.7965 49.5059 73.7041 49.2747 73.7041 48.8125V48.3965C73.7041 48.2116 73.7965 48.1191 73.9814 48.1191C74.1201 48.1191 74.3397 48.096 74.6401 48.0498C74.9406 48.0036 75.2526 47.9574 75.5762 47.9111C75.8997 47.8649 76.2002 47.8187 76.4775 47.7725C76.7549 47.7031 76.9513 47.6569 77.0669 47.6338C79.4243 47.1022 80.603 45.7617 80.603 43.6123V7.00293C80.603 5.0153 79.8057 3.60547 78.2109 2.77344C77.2633 2.26497 76.2464 2.01074 75.1602 2.01074H73.8428C73.6579 2.01074 73.5654 1.91829 73.5654 1.7334V0.901367C73.5654 0.716471 73.7041 0.624023 73.9814 0.624023L93.0142 0.104004H96.5156C100.606 0.381348 104.027 1.87207 106.777 4.57617C109.551 7.25716 110.938 10.5737 110.938 14.5259C110.938 18.4549 109.297 21.5173 106.015 23.7129C104.998 24.3831 103.9 24.984 102.721 25.5156L113.226 42.6763C115.051 45.6808 117.501 47.7956 120.575 49.0205C120.829 49.0898 120.957 49.2516 120.957 49.5059C120.957 50.0837 120.575 50.3726 119.812 50.3726C114.612 50.3726 110.475 48.3965 107.401 44.4443C106.731 43.5661 106.061 42.5838 105.391 41.4976L96.4116 27.4224L88.1606 27.041H87.8833C87.5366 27.041 87.3633 27.2028 87.3633 27.5264V43.5083C87.3633 44.7795 87.7215 45.7271 88.438 46.3511C89.1545 46.9751 90.391 47.4027 92.1475 47.6338C92.6097 47.7031 93.1759 47.8071 93.8462 47.9458C94.5164 48.0614 94.9671 48.1191 95.1982 48.1191C95.4525 48.1191 95.5796 48.2116 95.5796 48.3965V49.2285C95.5796 49.4134 95.4871 49.5059 95.3022 49.5059H73.9814ZM90.1714 1.94141C89.894 1.94141 89.5936 1.95296 89.27 1.97607C88.9696 1.97607 88.5767 1.98763 88.0913 2.01074C87.606 2.01074 87.3633 2.19564 87.3633 2.56543V23.5742L87.4326 24.6143C87.502 25.0996 87.7215 25.3538 88.0913 25.377L91.6274 25.585C98.1219 25.585 102.039 23.2738 103.38 18.6514C103.819 17.1953 104.039 15.5312 104.039 13.6592C104.039 10.0075 102.895 7.13005 100.606 5.02686C98.3415 2.92367 95.4409 1.87207 91.9048 1.87207C91.5812 1.87207 91.2808 1.88363 91.0034 1.90674C90.7261 1.90674 90.4487 1.91829 90.1714 1.94141Z" fill="#2D2D2D"/>
<path d="M56.6475 6.1709C56.6475 3.39746 55.0527 2.01074 51.8633 2.01074C51.3548 2.01074 51.1006 1.91829 51.1006 1.7334V0.901367C51.1006 0.716471 51.193 0.624023 51.3779 0.624023H68.7466C68.9315 0.624023 69.0239 0.716471 69.0239 0.901367V1.7334C69.0239 1.91829 68.5155 2.01074 67.4985 2.01074C66.4816 2.01074 65.5456 2.33431 64.6904 2.98145C63.8353 3.62858 63.4077 4.95752 63.4077 6.96826V43.959C63.4077 46.7324 65.014 48.1191 68.2266 48.1191C68.7119 48.1191 68.9546 48.2116 68.9546 48.3965V49.2285C68.9546 49.4134 68.8621 49.5059 68.6772 49.5059H51.3086C51.1237 49.5059 51.0312 49.4134 51.0312 49.2285V48.3965C51.0312 48.2116 51.5397 48.1191 52.5566 48.1191C53.5736 48.1191 54.5096 47.7956 55.3647 47.1484C56.2199 46.5013 56.6475 45.1724 56.6475 43.1616V6.1709Z" fill="#2D2D2D"/>
<path d="M0.277344 49.5059C0.0924479 49.5059 0 49.4134 0 49.2285V48.3965C0 48.2116 0.161784 48.1191 0.485352 48.1191C1.57161 48.1191 2.77344 48.0036 4.09082 47.7725C8.32031 47.056 10.4351 45.5999 10.4351 43.4043V6.82959C10.2039 3.87126 8.85189 2.26497 6.37891 2.01074C5.63932 1.91829 4.81885 1.87207 3.91748 1.87207H1.94141C1.75651 1.87207 1.66406 1.77962 1.66406 1.59473V0.728027C1.66406 0.543132 1.75651 0.450684 1.94141 0.450684L3.4668 0.416016L9.42969 0.381348L21.7715 0C34.9915 0 41.6016 3.90592 41.6016 11.7178C41.6016 15.0228 39.8913 17.7731 36.4707 19.9688C35.9391 20.3154 35.4769 20.5697 35.084 20.7314C34.7142 20.8932 34.5062 20.9857 34.46 21.0088C37.5107 22.7191 39.9028 24.6374 41.6362 26.7637C43.3927 28.89 44.271 31.4323 44.271 34.3906C44.271 40.7002 41.2896 45.0915 35.3267 47.5645C32.2528 48.8587 28.9131 49.5059 25.3076 49.5059H0.277344ZM17.8193 22.4648C17.5189 22.4648 17.3687 22.592 17.3687 22.8462V41.8442C17.3687 43.4852 18.1313 44.8026 19.6567 45.7964C21.2052 46.7902 22.8693 47.2871 24.6489 47.2871C28.0695 47.2871 30.9816 46.0737 33.3853 43.647C35.7889 41.1971 36.9907 38.1925 36.9907 34.6333C36.9907 31.0509 35.6965 28.1273 33.1079 25.8623C30.5425 23.5973 27.2837 22.4648 23.3315 22.4648H17.8193ZM17.2993 19.6567C17.2993 20.0959 17.5651 20.3154 18.0967 20.3154H26.625C28.8438 20.3154 30.7043 19.495 32.2065 17.854C33.7319 16.2131 34.4946 14.3757 34.4946 12.3418C34.4946 8.71322 33.4661 6.09001 31.4092 4.47217C29.3522 2.83122 26.6134 2.01074 23.1929 2.01074C22.1528 2.08008 21.4248 2.11475 21.0088 2.11475C20.6159 2.11475 20.1999 2.11475 19.7607 2.11475C19.3216 2.09163 18.8825 2.11475 18.4434 2.18408C18.0042 2.25342 17.7038 2.40365 17.542 2.63477C17.3802 2.86589 17.2993 3.24723 17.2993 3.77881V19.6567Z" fill="#2D2D2D"/>
</svg>
