<svg width="32" height="32" viewBox="0 0 32 32" fill="none" xmlns="http://www.w3.org/2000/svg">
<g clip-path="url(#clip0_34599_3865)">
<rect width="32" height="32" rx="16" fill="#A2E3AD"/>
<path d="M12.7447 24V15.7653C11.1891 15.4038 9.90079 14.6241 8.87966 13.4261C7.85852 12.2282 7.23449 10.8451 7.00756 9.27704C6.97468 9.06263 7.04901 8.87836 7.23055 8.72423C7.41208 8.57008 7.62257 8.493 7.86201 8.493C8.10927 8.493 8.32367 8.56186 8.50518 8.69957C8.68672 8.83728 8.79783 9.02351 8.83852 9.25825C9.08579 10.6605 9.72039 11.8225 10.7423 12.7442C11.7643 13.666 12.9794 14.1269 14.3879 14.1269H17.4396C17.9795 14.1269 18.4631 14.2172 18.8903 14.398C19.3175 14.5787 19.7213 14.8593 20.1016 15.2395L24.8059 19.9439C24.9749 20.1129 25.0614 20.3253 25.0653 20.5812C25.0692 20.837 24.9827 21.0534 24.8059 21.2302C24.6291 21.4071 24.4147 21.4955 24.1627 21.4955C23.9108 21.4955 23.6964 21.4071 23.5195 21.2302L19.0828 16.7935V24C19.0828 24 19.0828 24.62 18.2518 24.62C17.4208 24.62 14.2828 24.62 13.5 24.62C12.7172 24.62 12.7447 24 12.7447 24ZM15.9138 12.5071C15.2893 12.5071 14.7576 12.2876 14.3187 11.8486C13.8797 11.4097 13.6602 10.878 13.6602 10.2536C13.6602 9.62912 13.8797 9.09742 14.3187 8.65847C14.7576 8.21949 15.2893 8 15.9138 8C16.5382 8 17.0699 8.21949 17.5088 8.65847C17.9478 9.09742 18.1673 9.62912 18.1673 10.2536C18.1673 10.878 17.9478 11.4097 17.5088 11.8486C17.0699 12.2876 16.5382 12.5071 15.9138 12.5071Z" fill="#013F03"/>
</g>
<defs>
<clipPath id="clip0_34599_3865">
<rect width="32" height="32" rx="16" fill="white"/>
</clipPath>
</defs>
</svg>
