<svg width="32" height="32" viewBox="0 0 32 32" fill="none" xmlns="http://www.w3.org/2000/svg">
<rect width="32" height="32" rx="8" fill="#DCFF4E"/>
<path d="M9.73971 23.381H23.9371C24.2299 23.381 24.4469 23.2481 24.588 22.9823C24.7291 22.7167 24.7073 22.4594 24.5224 22.2104L20.6618 17.0387C20.5102 16.8436 20.3151 16.7461 20.0765 16.7461C19.8377 16.7461 19.6426 16.8436 19.4912 17.0387L15.5306 22.1978L12.8778 18.7978C12.7265 18.613 12.5339 18.5206 12.3002 18.5206C12.0668 18.5206 11.8743 18.6183 11.7226 18.8136L9.16981 22.2104C8.97471 22.4594 8.94773 22.7167 9.08886 22.9823C9.22998 23.2481 9.44694 23.381 9.73971 23.381ZM11.1094 12.0476C11.6699 12.0476 12.1472 11.8504 12.5415 11.4559C12.936 11.0616 13.1332 10.5843 13.1332 10.0238C13.1332 9.46335 12.936 8.986 12.5415 8.59176C12.1472 8.19725 11.6699 8 11.1094 8C10.549 8 10.0716 8.19725 9.67738 8.59176C9.28287 8.986 9.08562 9.46335 9.08562 10.0238C9.08562 10.5843 9.28287 11.0616 9.67738 11.4559C10.0716 11.8504 10.549 12.0476 11.1094 12.0476Z" fill="#013F03"/>
</svg>
