<svg width="40" height="40" viewBox="0 0 40 40" fill="none" xmlns="http://www.w3.org/2000/svg">
<path d="M15.9167 25.859L30.3141 11.4615C30.562 11.2137 30.8563 11.0871 31.1971 11.0817C31.5379 11.0764 31.8376 11.203 32.0961 11.4615C32.3547 11.7201 32.484 12.0171 32.484 12.3525C32.484 12.688 32.3547 12.985 32.0961 13.2435L16.9711 28.3685C16.6699 28.6698 16.3184 28.8204 15.9167 28.8204C15.515 28.8204 15.1635 28.6698 14.8622 28.3685L7.90388 21.4102C7.65602 21.1623 7.53369 20.868 7.53688 20.5272C7.5401 20.1864 7.67098 19.8867 7.92951 19.6282C8.18806 19.3697 8.48506 19.2404 8.82051 19.2404C9.15598 19.2404 9.45298 19.3697 9.71151 19.6282L15.9167 25.859Z" fill="#238F27"/>
</svg>
