<svg width="32" height="32" viewBox="0 0 32 32" fill="none" xmlns="http://www.w3.org/2000/svg">
<path d="M6.62328 16.9871H27.1644C27.4477 16.9871 27.6852 16.8913 27.8768 16.6995C28.0685 16.5078 28.1643 16.2702 28.1643 15.9867C28.1643 15.7032 28.0685 15.4658 27.8768 15.2743C27.6852 15.0829 27.4477 14.9872 27.1644 14.9872H6.62328L12.4054 9.18458C12.5872 9.00212 12.6822 8.77403 12.6904 8.50032C12.6987 8.2266 12.6037 7.98986 12.4054 7.79008C12.2236 7.60695 11.9923 7.51538 11.7114 7.51538C11.4305 7.51538 11.1977 7.60769 11.0131 7.79232L3.66185 15.1436C3.53707 15.2684 3.44904 15.4005 3.39775 15.5401C3.34646 15.6797 3.32082 15.8293 3.32082 15.9889C3.32082 16.1484 3.34665 16.3 3.39832 16.4436C3.45001 16.5872 3.53785 16.7205 3.66185 16.8435L11.0131 24.1948C11.1956 24.3794 11.4237 24.4717 11.6974 24.4717C11.9711 24.4717 12.2071 24.3794 12.4054 24.1948C12.6122 23.9966 12.7135 23.759 12.7093 23.482C12.705 23.2051 12.6037 22.9675 12.4054 22.7692L6.62328 16.9871Z" fill="#2D2D2D"/>
</svg>
