<svg width="32" height="32" viewBox="0 0 32 32" fill="none" xmlns="http://www.w3.org/2000/svg">
<path d="M16 23.3333C17.6667 23.3333 19.0834 22.75 20.25 21.5833C21.4167 20.4167 22 19 22 17.3333C22 15.6667 21.4167 14.25 20.25 13.0833C19.0834 11.9167 17.6667 11.3333 16 11.3333C14.3334 11.3333 12.9167 11.9167 11.75 13.0833C10.5834 14.25 10 15.6667 10 17.3333C10 19 10.5834 20.4167 11.75 21.5833C12.9167 22.75 14.3334 23.3333 16 23.3333ZM16 20.6667C15.0667 20.6667 14.2778 20.3444 13.6334 19.7C12.9889 19.0556 12.6667 18.2667 12.6667 17.3333C12.6667 16.4 12.9889 15.6111 13.6334 14.9667C14.2778 14.3222 15.0667 14 16 14C16.9334 14 17.7222 14.3222 18.3667 14.9667C19.0111 15.6111 19.3334 16.4 19.3334 17.3333C19.3334 18.2667 19.0111 19.0556 18.3667 19.7C17.7222 20.3444 16.9334 20.6667 16 20.6667ZM5.33335 28C4.60002 28 3.97224 27.7389 3.45002 27.2167C2.9278 26.6944 2.66669 26.0667 2.66669 25.3333V9.33333C2.66669 8.6 2.9278 7.97222 3.45002 7.45C3.97224 6.92778 4.60002 6.66667 5.33335 6.66667H9.53335L11.2 4.86667C11.4445 4.6 11.7389 4.38889 12.0834 4.23333C12.4278 4.07778 12.7889 4 13.1667 4H18.8334C19.2111 4 19.5722 4.07778 19.9167 4.23333C20.2611 4.38889 20.5556 4.6 20.8 4.86667L22.4667 6.66667H26.6667C27.4 6.66667 28.0278 6.92778 28.55 7.45C29.0722 7.97222 29.3334 8.6 29.3334 9.33333V25.3333C29.3334 26.0667 29.0722 26.6944 28.55 27.2167C28.0278 27.7389 27.4 28 26.6667 28H5.33335Z" fill="white"/>
<path d="M19.8965 21.2298C18.8246 22.3016 17.5356 22.8333 16 22.8333C14.4644 22.8333 13.1754 22.3016 12.1036 21.2298C11.0317 20.1579 10.5 18.8689 10.5 17.3333C10.5 15.7978 11.0317 14.5087 12.1036 13.4369C13.1754 12.3651 14.4644 11.8333 16 11.8333C17.5356 11.8333 18.8246 12.3651 19.8965 13.4369C20.9683 14.5087 21.5 15.7978 21.5 17.3333C21.5 18.8689 20.9683 20.1579 19.8965 21.2298ZM13.2798 20.0536C14.0205 20.7943 14.9377 21.1667 16 21.1667C17.0624 21.1667 17.9795 20.7943 18.7202 20.0536C19.461 19.3128 19.8334 18.3957 19.8334 17.3333C19.8334 16.271 19.461 15.3538 18.7202 14.6131C17.9795 13.8724 17.0624 13.5 16 13.5C14.9377 13.5 14.0205 13.8724 13.2798 14.6131C12.5391 15.3538 12.1667 16.271 12.1667 17.3333C12.1667 18.3957 12.5391 19.3128 13.2798 20.0536ZM3.09647 27.5702C3.71171 28.1855 4.46636 28.5 5.33335 28.5H26.6667C27.5337 28.5 28.2883 28.1855 28.9036 27.5702C29.5188 26.955 29.8334 26.2003 29.8334 25.3333V9.33333C29.8334 8.46634 29.5188 7.71169 28.9036 7.09645C28.2883 6.4812 27.5337 6.16667 26.6667 6.16667H22.6851L21.1686 4.5288C21.1683 4.5285 21.168 4.52819 21.1677 4.52788C20.8757 4.20954 20.5254 3.95961 20.1225 3.77765C19.7134 3.5929 19.2821 3.5 18.8334 3.5H13.1667C12.7179 3.5 12.2867 3.5929 11.8776 3.77765C11.4747 3.95961 11.1243 4.20953 10.8323 4.52786C10.832 4.52817 10.8317 4.52849 10.8314 4.5288L9.3149 6.16667H5.33335C4.46636 6.16667 3.71171 6.4812 3.09647 7.09645C2.48122 7.71169 2.16669 8.46634 2.16669 9.33333V25.3333C2.16669 26.2003 2.48122 26.955 3.09647 27.5702Z" stroke="black" stroke-opacity="0.5"/>
</svg>
