<svg width="40" height="40" viewBox="0 0 40 40" fill="none" xmlns="http://www.w3.org/2000/svg">
<path d="M18.75 21.25H10.4167C10.0625 21.25 9.76565 21.1302 9.52606 20.8905C9.28648 20.6508 9.16669 20.3538 9.16669 19.9995C9.16669 19.6452 9.28648 19.3483 9.52606 19.109C9.76565 18.8697 10.0625 18.7501 10.4167 18.7501H18.75V10.4167C18.75 10.0626 18.8699 9.76571 19.1095 9.52612C19.3492 9.28654 19.6462 9.16675 20.0005 9.16675C20.3549 9.16675 20.6517 9.28654 20.891 9.52612C21.1303 9.76571 21.2499 10.0626 21.2499 10.4167V18.7501H29.5833C29.9374 18.7501 30.2343 18.8699 30.4739 19.1096C30.7135 19.3493 30.8333 19.6463 30.8333 20.0006C30.8333 20.3549 30.7135 20.6517 30.4739 20.891C30.2343 21.1303 29.9374 21.25 29.5833 21.25H21.2499V29.5833C21.2499 29.9375 21.1301 30.2344 20.8904 30.474C20.6507 30.7135 20.3537 30.8333 19.9994 30.8333C19.6451 30.8333 19.3483 30.7135 19.109 30.474C18.8697 30.2344 18.75 29.9375 18.75 29.5833V21.25Z" fill="#013F03"/>
</svg>
