<svg width="32" height="32" viewBox="0 0 32 32" fill="none" xmlns="http://www.w3.org/2000/svg">
<path d="M7.76667 17.3333H28C28.3778 17.3333 28.6945 17.2055 28.95 16.9499C29.2056 16.6944 29.3333 16.3777 29.3333 15.9999C29.3333 15.6222 29.2056 15.3055 28.95 15.0499C28.6945 14.7944 28.3778 14.6666 28 14.6666H7.76667L12.9333 9.46661C13.1778 9.22217 13.3056 8.91661 13.3167 8.54994C13.3278 8.18328 13.2 7.86661 12.9333 7.59994C12.6889 7.3555 12.3778 7.23328 12 7.23328C11.6222 7.23328 11.3111 7.3555 11.0667 7.59994L3.6 15.0666C3.46667 15.1999 3.37223 15.3444 3.31667 15.4999C3.26112 15.6555 3.23334 15.8222 3.23334 15.9999C3.23334 16.1777 3.26112 16.3444 3.31667 16.4999C3.37223 16.6555 3.46667 16.7999 3.6 16.9333L11.0667 24.3999C11.3111 24.6444 11.6167 24.7666 11.9833 24.7666C12.35 24.7666 12.6667 24.6444 12.9333 24.3999C13.2 24.1333 13.3333 23.8166 13.3333 23.4499C13.3333 23.0833 13.2 22.7666 12.9333 22.4999L7.76667 17.3333Z" fill="white"/>
<path d="M13.2792 24.7612L13.2712 24.7685C12.9109 25.0988 12.4732 25.2666 11.9833 25.2666C11.493 25.2666 11.0575 25.0978 10.7131 24.7535L3.24645 17.2868C3.06819 17.1086 2.92956 16.9026 2.8458 16.6681C2.76955 16.4546 2.73334 16.2306 2.73334 15.9999C2.73334 15.7692 2.76955 15.5453 2.8458 15.3318C2.92956 15.0973 3.06819 14.8913 3.24645 14.7131L10.7131 7.24639L13.2792 24.7612ZM13.2792 24.7612L13.2869 24.7535C13.6443 24.3961 13.8333 23.9534 13.8333 23.4499C13.8333 22.9465 13.6443 22.5038 13.2869 22.1464L8.97378 17.8333M13.2792 24.7612L8.97378 17.8333M8.97378 17.8333H28C28.5037 17.8333 28.9496 17.6574 29.3036 17.3035C29.6575 16.9495 29.8333 16.5036 29.8333 15.9999C29.8333 15.4962 29.6575 15.0503 29.3036 14.6964C28.9496 14.3424 28.5037 14.1666 28 14.1666H8.96831L13.2869 9.82016C13.2871 9.81994 13.2873 9.81972 13.2876 9.81949C13.6275 9.47922 13.8017 9.05019 13.8164 8.56509C13.8319 8.05631 13.648 7.60745 13.2869 7.24639L13.2869 7.24639C12.9395 6.89901 12.4968 6.73328 12 6.73328C11.5032 6.73328 11.0605 6.89901 10.7131 7.24639L8.97378 17.8333Z" stroke="black" stroke-opacity="0.5"/>
</svg>
