<svg width="40" height="40" viewBox="0 0 40 40" fill="none" xmlns="http://www.w3.org/2000/svg">
<path d="M19.9817 29.3587C20.4575 29.3587 20.8594 29.1945 21.1875 28.8662C21.5156 28.5376 21.6796 28.1352 21.6796 27.6591C21.6796 27.1833 21.5153 26.7813 21.1867 26.4533C20.8581 26.1255 20.4558 25.9616 19.98 25.9616C19.5042 25.9616 19.1022 26.1259 18.7742 26.4545C18.4461 26.7832 18.2821 27.1854 18.2821 27.6612C18.2821 28.137 18.4464 28.539 18.775 28.867C19.1036 29.1948 19.5058 29.3587 19.9817 29.3587ZM20.0029 35.8333C17.8129 35.8333 15.7544 35.4177 13.8275 34.5866C11.9006 33.7555 10.2244 32.6276 8.79917 31.2029C7.37389 29.7782 6.24542 28.1027 5.41375 26.1766C4.58237 24.2505 4.16667 22.1926 4.16667 20.0029C4.16667 17.8129 4.58223 15.7544 5.41334 13.8275C6.24445 11.9005 7.37237 10.2244 8.79709 8.79913C10.2218 7.37385 11.8972 6.24538 13.8233 5.41371C15.7494 4.58232 17.8074 4.16663 19.9971 4.16663C22.1871 4.16663 24.2456 4.58218 26.1725 5.41329C28.0994 6.2444 29.7756 7.37232 31.2008 8.79704C32.6261 10.2218 33.7546 11.8972 34.5863 13.8233C35.4176 15.7494 35.8333 17.8073 35.8333 19.997C35.8333 22.187 35.4178 24.2455 34.5867 26.1725C33.7556 28.0994 32.6276 29.7755 31.2029 31.2008C29.7782 32.6261 28.1028 33.7545 26.1767 34.5862C24.2506 35.4176 22.1926 35.8333 20.0029 35.8333ZM20 33.3333C23.7222 33.3333 26.875 32.0416 29.4583 29.4583C32.0417 26.875 33.3333 23.7222 33.3333 20C33.3333 16.2777 32.0417 13.125 29.4583 10.5416C26.875 7.95829 23.7222 6.66663 20 6.66663C16.2778 6.66663 13.125 7.95829 10.5417 10.5416C7.95834 13.125 6.66667 16.2777 6.66667 20C6.66667 23.7222 7.95834 26.875 10.5417 29.4583C13.125 32.0416 16.2778 33.3333 20 33.3333ZM20.135 12.8654C20.9039 12.8654 21.5693 13.1075 22.1313 13.5916C22.6935 14.0758 22.9746 14.6809 22.9746 15.407C22.9746 16.0182 22.795 16.5651 22.4358 17.0479C22.0769 17.5309 21.6667 17.9808 21.205 18.3975C20.6 18.9341 20.0674 19.5245 19.6071 20.1687C19.1468 20.8126 18.9007 21.5298 18.8688 22.3204C18.8579 22.624 18.9647 22.8783 19.1892 23.0833C19.4136 23.2883 19.6753 23.3908 19.9742 23.3908C20.2947 23.3908 20.5661 23.284 20.7883 23.0704C21.0106 22.8568 21.1526 22.5951 21.2146 22.2854C21.3257 21.7126 21.5624 21.2025 21.9246 20.755C22.2868 20.3072 22.6792 19.8815 23.1017 19.4779C23.7092 18.8857 24.2393 18.2401 24.6921 17.5412C25.1451 16.842 25.3717 16.0623 25.3717 15.202C25.3717 13.8815 24.8514 12.7965 23.8108 11.947C22.7703 11.0979 21.5556 10.6733 20.1667 10.6733C19.1753 10.6733 18.2404 10.8927 17.3621 11.3316C16.484 11.7708 15.8003 12.4113 15.3108 13.2533C15.1592 13.5119 15.1106 13.784 15.165 14.0695C15.2192 14.3554 15.3657 14.5723 15.6046 14.7204C15.9088 14.8895 16.2211 14.9379 16.5417 14.8654C16.8622 14.7926 17.1346 14.61 17.3588 14.3175C17.6965 13.8794 18.1053 13.5279 18.585 13.2629C19.0647 12.9979 19.5814 12.8654 20.135 12.8654Z" fill="#A2E3AD"/>
</svg>
