<svg width="32" height="32" viewBox="0 0 32 32" fill="none" xmlns="http://www.w3.org/2000/svg">
<rect width="32" height="32" rx="8" fill="#DCFF4E"/>
<path d="M20.6616 13.5963C21.1621 13.5963 21.5864 13.4211 21.9345 13.0707C22.2826 12.7206 22.4566 12.2953 22.4566 11.7951C22.4566 11.2948 22.2815 10.8706 21.9314 10.5225C21.5812 10.1742 21.1559 10 20.6554 10C20.1551 10 19.7309 10.1752 19.3828 10.5256C19.0347 10.8758 18.8607 11.301 18.8607 11.8013C18.8607 12.3015 19.0357 12.7257 19.3859 13.0738C19.7361 13.4221 20.1613 13.5963 20.6616 13.5963ZM11.3012 13.5963C11.8015 13.5963 12.2257 13.4211 12.5738 13.0707C12.9219 12.7206 13.096 12.2953 13.096 11.7951C13.096 11.2948 12.9209 10.8706 12.5707 10.5225C12.2206 10.1742 11.7953 10 11.2951 10C10.7946 10 10.3703 10.1752 10.0222 10.5256C9.67405 10.8758 9.5 11.301 9.5 11.8013C9.5 12.3015 9.67508 12.7257 10.0252 13.0738C10.3754 13.4221 10.8007 13.5963 11.3012 13.5963ZM15.9783 22.375C17.2124 22.375 18.3508 22.0828 19.3935 21.4984C20.4362 20.9141 21.2828 20.1213 21.9334 19.12C22.0636 18.8698 22.0595 18.6182 21.9211 18.3652C21.7829 18.1122 21.5665 17.9857 21.2721 17.9857H10.6846C10.3901 17.9857 10.1737 18.1122 10.0356 18.3652C9.89715 18.6182 9.89302 18.8698 10.0232 19.12C10.6738 20.1213 11.5258 20.9141 12.5793 21.4984C13.6326 22.0828 14.7656 22.375 15.9783 22.375Z" fill="#013F03"/>
</svg>
