<svg width="40" height="40" viewBox="0 0 40 40" fill="none" xmlns="http://www.w3.org/2000/svg">
<path fill-rule="evenodd" clip-rule="evenodd" d="M14.6267 32.9808C14.9333 33.2628 15.2822 33.4038 15.6733 33.4038C15.8633 33.4038 16.0475 33.3674 16.2258 33.2946C16.4044 33.2221 16.5717 33.1078 16.7275 32.9517L22.1796 27.5H25.8333C28.6261 27.5 30.9936 26.5315 32.9358 24.5946C34.878 22.6577 35.8492 20.2928 35.8492 17.5C35.8492 14.7072 34.878 12.3424 32.9358 10.4054C31.1898 8.66415 29.1001 7.70556 26.6667 7.52966L13.3333 7.54583C10.9004 7.72124 8.81333 8.67708 7.07207 10.4133C5.13513 12.345 4.16666 14.7072 4.16666 17.5C4.16666 20.2222 5.12666 22.531 7.04666 24.4263C8.96638 26.3215 11.2917 27.3375 14.0225 27.4742H14.1667V31.8717C14.1667 32.3289 14.32 32.6986 14.6267 32.9808ZM13.3988 10.05C11.6448 10.2092 10.1299 10.9243 8.85416 12.1954C7.39582 13.6485 6.66666 15.4167 6.66666 17.5C6.66666 19.6153 7.44124 21.3942 8.99041 22.8367C10.5396 24.2789 12.3879 25 14.5354 25H16.6667V29.4742L21.125 25H25.8333C27.9167 25 29.6901 24.2708 31.1537 22.8125C32.6174 21.3542 33.3492 19.5833 33.3492 17.5C33.3492 15.4167 32.6174 13.6458 31.1537 12.1875C29.8893 10.9276 28.3936 10.212 26.6667 10.0405L13.3988 10.05Z" fill="#2D2D2D"/>
</svg>
