<svg width="32" height="32" viewBox="0 0 32 32" fill="none" xmlns="http://www.w3.org/2000/svg">
<path d="M26.333 9.33333C26.0494 9.33333 25.812 9.23756 25.6207 9.046C25.4291 8.85422 25.3333 8.61667 25.3333 8.33333V6.66667H23.6667C23.3833 6.66667 23.1458 6.57078 22.954 6.379C22.7624 6.18722 22.6667 5.94967 22.6667 5.66633C22.6667 5.38278 22.7624 5.14533 22.954 4.954C23.1458 4.76244 23.3833 4.66667 23.6667 4.66667H25.3333V3C25.3333 2.71667 25.4292 2.47922 25.621 2.28767C25.8128 2.09589 26.0503 2 26.3337 2C26.6172 2 26.8547 2.09589 27.046 2.28767C27.2376 2.47922 27.3333 2.71667 27.3333 3V4.66667H29C29.2833 4.66667 29.5208 4.76256 29.7123 4.95433C29.9041 5.14611 30 5.38367 30 5.667C30 5.95056 29.9041 6.188 29.7123 6.37933C29.5208 6.57089 29.2833 6.66667 29 6.66667H27.3333V8.33333C27.3333 8.61667 27.2374 8.85422 27.0457 9.046C26.8539 9.23756 26.6163 9.33333 26.333 9.33333ZM14.6667 22.8203C16.1967 22.8203 17.4937 22.2883 18.5577 21.2243C19.6217 20.1603 20.1537 18.8633 20.1537 17.3333C20.1537 15.8033 19.6217 14.5063 18.5577 13.4423C17.4937 12.3783 16.1967 11.8463 14.6667 11.8463C13.1367 11.8463 11.8397 12.3783 10.7757 13.4423C9.71167 14.5063 9.17967 15.8033 9.17967 17.3333C9.17967 18.8633 9.71167 20.1603 10.7757 21.2243C11.8397 22.2883 13.1367 22.8203 14.6667 22.8203ZM14.6667 20.8207C13.682 20.8207 12.8547 20.4856 12.1847 19.8153C11.5144 19.1453 11.1793 18.318 11.1793 17.3333C11.1793 16.3487 11.5144 15.5213 12.1847 14.8513C12.8547 14.1811 13.682 13.846 14.6667 13.846C15.6513 13.846 16.4787 14.1811 17.1487 14.8513C17.8189 15.5213 18.154 16.3487 18.154 17.3333C18.154 18.318 17.8189 19.1453 17.1487 19.8153C16.4787 20.4856 15.6513 20.8207 14.6667 20.8207ZM4.41033 27.3333C3.73678 27.3333 3.16667 27.1 2.7 26.6333C2.23333 26.1667 2 25.5966 2 24.923V9.74367C2 9.07011 2.23333 8.5 2.7 8.03333C3.16667 7.56667 3.73678 7.33333 4.41033 7.33333H8.482L10.2257 5.44367C10.4461 5.20456 10.7118 5.01533 11.0227 4.876C11.3333 4.73645 11.6591 4.66667 12 4.66667H18.7437C19.027 4.66667 19.2644 4.76256 19.456 4.95433C19.6478 5.14589 19.7437 5.38333 19.7437 5.66667V7.782C19.7437 8.28422 19.9193 8.71111 20.2707 9.06267C20.6222 9.414 21.0491 9.58967 21.5513 9.58967H22.4103V10.4487C22.4103 10.9509 22.586 11.3778 22.9373 11.7293C23.2889 12.0807 23.7158 12.2563 24.218 12.2563H26.3333C26.6167 12.2563 26.8541 12.3522 27.0457 12.544C27.2374 12.7356 27.3333 12.973 27.3333 13.2563V24.923C27.3333 25.5966 27.1 26.1667 26.6333 26.6333C26.1667 27.1 25.5966 27.3333 24.923 27.3333H4.41033Z" fill="#013F03"/>
</svg>
