<svg width="32" height="32" viewBox="0 0 32 32" fill="none" xmlns="http://www.w3.org/2000/svg">
<path d="M16 22.8203C17.53 22.8203 18.827 22.2883 19.891 21.2243C20.955 20.1603 21.487 18.8633 21.487 17.3333C21.487 15.8033 20.955 14.5063 19.891 13.4423C18.827 12.3783 17.53 11.8463 16 11.8463C14.47 11.8463 13.173 12.3783 12.109 13.4423C11.045 14.5063 10.513 15.8033 10.513 17.3333C10.513 18.8633 11.045 20.1603 12.109 21.2243C13.173 22.2883 14.47 22.8203 16 22.8203ZM16 20.8206C15.0153 20.8206 14.188 20.4855 13.518 19.8153C12.8478 19.1453 12.5127 18.318 12.5127 17.3333C12.5127 16.3486 12.8478 15.5213 13.518 14.8513C14.188 14.1811 15.0153 13.846 16 13.846C16.9847 13.846 17.812 14.1811 18.482 14.8513C19.1522 15.5213 19.4873 16.3486 19.4873 17.3333C19.4873 18.318 19.1522 19.1453 18.482 19.8153C17.812 20.4855 16.9847 20.8206 16 20.8206ZM5.74366 27.3333C5.07011 27.3333 4.49999 27.1 4.03333 26.6333C3.56666 26.1666 3.33333 25.5965 3.33333 24.923V9.74363C3.33333 9.07007 3.56666 8.49996 4.03333 8.03329C4.49999 7.56663 5.07011 7.33329 5.74366 7.33329H9.81533L11.559 5.44363C11.7779 5.20251 12.0424 5.01274 12.3527 4.87429C12.6629 4.73585 12.9898 4.66663 13.3333 4.66663H18.6667C19.0102 4.66663 19.3371 4.73585 19.6473 4.87429C19.9575 5.01274 20.2221 5.20251 20.441 5.44363L22.1847 7.33329H26.2563C26.9299 7.33329 27.5 7.56663 27.9667 8.03329C28.4333 8.49996 28.6667 9.07007 28.6667 9.74363V24.923C28.6667 25.5965 28.4333 26.1666 27.9667 26.6333C27.5 27.1 26.9299 27.3333 26.2563 27.3333H5.74366Z" fill="white"/>
</svg>
