<svg width="40" height="40" viewBox="0 0 40 40" fill="none" xmlns="http://www.w3.org/2000/svg">
<path d="M18.75 21.25V26.6666C18.75 27.0208 18.8699 27.3176 19.1096 27.557C19.3493 27.7968 19.6463 27.9166 20.0004 27.9166C20.3549 27.9166 20.6517 27.7968 20.8908 27.557C21.1303 27.3176 21.25 27.0208 21.25 26.6666V21.25H26.6667C27.0208 21.25 27.3176 21.1301 27.5571 20.8904C27.7968 20.6507 27.9167 20.3537 27.9167 19.9995C27.9167 19.6451 27.7968 19.3483 27.5571 19.1091C27.3176 18.8697 27.0208 18.75 26.6667 18.75H21.25V13.3333C21.25 12.9791 21.1301 12.6823 20.8904 12.4429C20.6507 12.2032 20.3538 12.0833 19.9996 12.0833C19.6451 12.0833 19.3483 12.2032 19.1092 12.4429C18.8697 12.6823 18.75 12.9791 18.75 13.3333V18.75H13.3333C12.9792 18.75 12.6824 18.8698 12.4429 19.1095C12.2032 19.3493 12.0833 19.6462 12.0833 20.0004C12.0833 20.3548 12.2032 20.6516 12.4429 20.8908C12.6824 21.1302 12.9792 21.25 13.3333 21.25H18.75ZM20.0029 35.8333C17.8129 35.8333 15.7544 35.4177 13.8275 34.5866C11.9006 33.7555 10.2244 32.6276 8.79917 31.2029C7.37389 29.7782 6.24542 28.1027 5.41375 26.1766C4.58237 24.2505 4.16667 22.1926 4.16667 20.0029C4.16667 17.8129 4.58223 15.7544 5.41334 13.8275C6.24445 11.9005 7.37237 10.2244 8.79709 8.79913C10.2218 7.37385 11.8972 6.24538 13.8233 5.41371C15.7494 4.58232 17.8074 4.16663 19.9971 4.16663C22.1871 4.16663 24.2456 4.58218 26.1725 5.41329C28.0994 6.2444 29.7756 7.37232 31.2008 8.79704C32.6261 10.2218 33.7546 11.8972 34.5863 13.8233C35.4176 15.7494 35.8333 17.8073 35.8333 19.997C35.8333 22.187 35.4178 24.2455 34.5867 26.1725C33.7556 28.0994 32.6276 29.7755 31.2029 31.2008C29.7782 32.6261 28.1028 33.7545 26.1767 34.5862C24.2506 35.4176 22.1926 35.8333 20.0029 35.8333Z" fill="#DCFF4E"/>
</svg>
