<svg width="26" height="26" viewBox="0 0 26 26" fill="none" xmlns="http://www.w3.org/2000/svg">
<path d="M5.35487 16.9076C5.06904 16.2908 4.85466 15.659 4.71175 15.0121C4.56883 14.3652 4.49737 13.7033 4.49737 13.0263C4.49737 11.7777 4.73431 10.6042 5.20819 9.50605C5.68207 8.40785 6.3252 7.45256 7.13757 6.64019C7.94993 5.82783 8.90522 5.1847 10.0034 4.71082C11.1016 4.23694 12.275 4 13.5237 4C14.7723 4 15.9457 4.23694 17.0439 4.71082C18.1421 5.1847 19.0974 5.82783 19.9098 6.64019C20.7222 7.45256 21.3653 8.40785 21.8392 9.50605C22.313 10.6042 22.55 11.7777 22.55 13.0263C22.55 14.2749 22.313 15.4484 21.8392 16.5466C21.3653 17.6448 20.7222 18.6001 19.9098 19.4124C19.0974 20.2248 18.1421 20.8679 17.0439 21.3418C15.9457 21.8157 14.7723 22.0526 13.5237 22.0526C12.8467 22.0526 12.1848 21.9812 11.5379 21.8382C10.891 21.6953 10.2592 21.4809 9.64237 21.1951L5.17434 22.5039C4.82834 22.6092 4.52746 22.534 4.27171 22.2783C4.01597 22.0225 3.94075 21.7216 4.04606 21.3756L5.35487 16.9076ZM6.2575 20.2925L9.14592 19.435C9.35653 19.3748 9.57091 19.3522 9.78904 19.3673C10.0072 19.3823 10.214 19.435 10.4096 19.5252C10.891 19.7659 11.395 19.9465 11.9215 20.0668C12.448 20.1872 12.9821 20.2474 13.5237 20.2474C15.5396 20.2474 17.247 19.5478 18.6461 18.1487C20.0452 16.7497 20.7447 15.0422 20.7447 13.0263C20.7447 11.0104 20.0452 9.30295 18.6461 7.90388C17.247 6.5048 15.5396 5.80526 13.5237 5.80526C11.5078 5.80526 9.80033 6.5048 8.40125 7.90388C7.00217 9.30295 6.30263 11.0104 6.30263 13.0263C6.30263 13.5679 6.36281 14.1019 6.48316 14.6285C6.60351 15.155 6.78404 15.659 7.02474 16.1404C7.13004 16.336 7.18646 16.5428 7.19398 16.7609C7.2015 16.9791 7.17518 17.1935 7.115 17.4041L6.2575 20.2925Z" fill="#013F03"/>
</svg>
