<svg width="40" height="40" viewBox="0 0 40 40" fill="none" xmlns="http://www.w3.org/2000/svg">
<path d="M15.8654 26.0256C13.0192 26.0256 10.609 25.0384 8.63467 23.0641C6.66031 21.0898 5.67313 18.6795 5.67313 15.8334C5.67313 12.9872 6.66031 10.577 8.63467 8.60261C10.609 6.62828 13.0192 5.64111 15.8654 5.64111C18.7115 5.64111 21.1218 6.62828 23.0961 8.60261C25.0705 10.577 26.0577 12.9872 26.0577 15.8334C26.0577 17.0235 25.8579 18.1603 25.4583 19.2436C25.0587 20.3269 24.5256 21.2693 23.8589 22.0705L33.4487 31.6603C33.6795 31.8911 33.7975 32.1811 33.8028 32.5305C33.8082 32.8798 33.6902 33.1752 33.4487 33.4167C33.2072 33.6581 32.9145 33.7788 32.5705 33.7788C32.2265 33.7788 31.9338 33.6581 31.6923 33.4167L22.1025 23.8269C21.2692 24.5149 20.3109 25.0534 19.2275 25.4423C18.1442 25.8312 17.0235 26.0256 15.8654 26.0256ZM15.8654 23.5257C18.0128 23.5257 19.8317 22.7805 21.3221 21.2901C22.8125 19.7997 23.5577 17.9808 23.5577 15.8334C23.5577 13.6859 22.8125 11.867 21.3221 10.3766C19.8317 8.88623 18.0128 8.14103 15.8654 8.14103C13.7179 8.14103 11.899 8.88623 10.4086 10.3766C8.91827 11.867 8.17308 13.6859 8.17308 15.8334C8.17308 17.9808 8.91827 19.7997 10.4086 21.2901C11.899 22.7805 13.7179 23.5257 15.8654 23.5257Z" fill="#2D2D2D"/>
</svg>
