<svg width="32" height="32" viewBox="0 0 32 32" fill="none" xmlns="http://www.w3.org/2000/svg">
<path d="M16 19.5487C15.8393 19.5487 15.6897 19.523 15.5513 19.4717C15.4128 19.4205 15.2812 19.3324 15.1564 19.2076L9.16413 13.2153C8.97951 13.0307 8.88507 12.7987 8.8808 12.5192C8.87651 12.2397 8.97096 12.0034 9.16413 11.8102C9.35729 11.6171 9.59147 11.5205 9.86667 11.5205C10.1419 11.5205 10.376 11.6171 10.5692 11.8102L16 17.241L21.4308 11.8102C21.6154 11.6256 21.8474 11.5312 22.1269 11.5269C22.4064 11.5226 22.6427 11.6171 22.8359 11.8102C23.029 12.0034 23.1256 12.2376 23.1256 12.5128C23.1256 12.788 23.029 13.0222 22.8359 13.2153L16.8436 19.2076C16.7188 19.3324 16.5872 19.4205 16.4487 19.4717C16.3103 19.523 16.1607 19.5487 16 19.5487Z" fill="#2D2D2D"/>
</svg>
