<svg width="40" height="40" viewBox="0 0 40 40" fill="none" xmlns="http://www.w3.org/2000/svg">
<path fill-rule="evenodd" clip-rule="evenodd" d="M14.6267 32.9807C14.9334 33.2627 15.2822 33.4036 15.6734 33.4036C15.8634 33.4036 16.0475 33.3673 16.2259 33.2945C16.4045 33.222 16.5717 33.1077 16.7275 32.9516L22.1796 27.4999H25.8334C28.6261 27.4999 30.9936 26.5314 32.9359 24.5945C34.8781 22.6575 35.8492 20.2927 35.8492 17.4999C35.8492 14.7071 34.8781 12.3423 32.9359 10.4053C31.1898 8.66403 29.1001 7.70544 26.6667 7.52954L13.3334 7.54571C10.9004 7.72112 8.81336 8.67696 7.0721 10.4132C5.13516 12.3449 4.16669 14.7071 4.16669 17.4999C4.16669 20.2221 5.12669 22.5309 7.04669 24.4261C8.96641 26.3214 11.2917 27.3374 14.0225 27.4741H14.1667V31.8716C14.1667 32.3288 14.32 32.6985 14.6267 32.9807ZM13.3989 10.0499C11.6448 10.209 10.1299 10.9242 8.85419 12.1953C7.39585 13.6484 6.66669 15.4166 6.66669 17.4999C6.66669 19.6152 7.44127 21.3941 8.99044 22.8366C10.5396 24.2788 12.3879 24.9999 14.5354 24.9999H16.6667V29.4741L21.125 24.9999H25.8334C27.9167 24.9999 29.6902 24.2707 31.1538 22.8124C32.6174 21.3541 33.3492 19.5832 33.3492 17.4999C33.3492 15.4166 32.6174 13.6457 31.1538 12.1874C29.8893 10.9275 28.3936 10.2119 26.6667 10.0404L13.3989 10.0499Z" fill="#A2E3AD"/>
</svg>
