<svg width="26" height="26" viewBox="0 0 26 26" fill="none" xmlns="http://www.w3.org/2000/svg">
<path d="M18.4167 23.8333C17.5139 23.8333 16.7465 23.5173 16.1146 22.8854C15.4826 22.2534 15.1667 21.4861 15.1667 20.5833C15.1667 20.475 15.1938 20.2222 15.2479 19.825L7.63751 15.3833C7.34862 15.6541 7.01459 15.8663 6.63542 16.0198C6.25626 16.1732 5.85001 16.25 5.41667 16.25C4.51389 16.25 3.74653 15.934 3.11459 15.302C2.48264 14.6701 2.16667 13.9027 2.16667 13C2.16667 12.0972 2.48264 11.3298 3.11459 10.6979C3.74653 10.0659 4.51389 9.74996 5.41667 9.74996C5.85001 9.74996 6.25626 9.8267 6.63542 9.98017C7.01459 10.1336 7.34862 10.3458 7.63751 10.6166L15.2479 6.17496C15.2118 6.04857 15.1892 5.9267 15.1802 5.80933C15.1712 5.69197 15.1667 5.56107 15.1667 5.41663C15.1667 4.51385 15.4826 3.74649 16.1146 3.11454C16.7465 2.4826 17.5139 2.16663 18.4167 2.16663C19.3194 2.16663 20.0868 2.4826 20.7188 3.11454C21.3507 3.74649 21.6667 4.51385 21.6667 5.41663C21.6667 6.3194 21.3507 7.08677 20.7188 7.71871C20.0868 8.35065 19.3194 8.66663 18.4167 8.66663C17.9833 8.66663 17.5771 8.58989 17.1979 8.43642C16.8188 8.28295 16.4847 8.07079 16.1958 7.79996L8.58542 12.2416C8.62153 12.368 8.6441 12.4899 8.65313 12.6073C8.66216 12.7246 8.66667 12.8555 8.66667 13C8.66667 13.1444 8.66216 13.2753 8.65313 13.3927C8.6441 13.51 8.62153 13.6319 8.58542 13.7583L16.1958 18.2C16.4847 17.9291 16.8188 17.717 17.1979 17.5635C17.5771 17.41 17.9833 17.3333 18.4167 17.3333C19.3194 17.3333 20.0868 17.6493 20.7188 18.2812C21.3507 18.9132 21.6667 19.6805 21.6667 20.5833C21.6667 21.4861 21.3507 22.2534 20.7188 22.8854C20.0868 23.5173 19.3194 23.8333 18.4167 23.8333ZM18.4167 21.6666C18.7236 21.6666 18.9809 21.5628 19.1885 21.3552C19.3962 21.1475 19.5 20.8902 19.5 20.5833C19.5 20.2763 19.3962 20.0191 19.1885 19.8114C18.9809 19.6038 18.7236 19.5 18.4167 19.5C18.1097 19.5 17.8524 19.6038 17.6448 19.8114C17.4372 20.0191 17.3333 20.2763 17.3333 20.5833C17.3333 20.8902 17.4372 21.1475 17.6448 21.3552C17.8524 21.5628 18.1097 21.6666 18.4167 21.6666ZM5.41667 14.0833C5.72362 14.0833 5.98091 13.9795 6.18855 13.7718C6.39619 13.5642 6.50001 13.3069 6.50001 13C6.50001 12.693 6.39619 12.4357 6.18855 12.2281C5.98091 12.0204 5.72362 11.9166 5.41667 11.9166C5.10973 11.9166 4.85244 12.0204 4.6448 12.2281C4.43716 12.4357 4.33334 12.693 4.33334 13C4.33334 13.3069 4.43716 13.5642 4.6448 13.7718C4.85244 13.9795 5.10973 14.0833 5.41667 14.0833ZM18.4167 6.49996C18.7236 6.49996 18.9809 6.39614 19.1885 6.1885C19.3962 5.98086 19.5 5.72357 19.5 5.41663C19.5 5.10968 19.3962 4.85239 19.1885 4.64475C18.9809 4.43711 18.7236 4.33329 18.4167 4.33329C18.1097 4.33329 17.8524 4.43711 17.6448 4.64475C17.4372 4.85239 17.3333 5.10968 17.3333 5.41663C17.3333 5.72357 17.4372 5.98086 17.6448 6.1885C17.8524 6.39614 18.1097 6.49996 18.4167 6.49996Z" fill="#013F03"/>
</svg>
