<svg width="26" height="26" viewBox="0 0 26 26" fill="none" xmlns="http://www.w3.org/2000/svg">
<path d="M3.19583 17.6583C2.85278 16.918 2.59549 16.1597 2.42396 15.3833C2.25243 14.6069 2.16667 13.8125 2.16667 13C2.16667 11.5013 2.45104 10.093 3.01979 8.77496C3.58854 7.4569 4.36042 6.31038 5.33542 5.33538C6.31042 4.36038 7.45695 3.5885 8.775 3.01975C10.0931 2.451 11.5014 2.16663 13 2.16663C14.4986 2.16663 15.9069 2.451 17.225 3.01975C18.5431 3.5885 19.6896 4.36038 20.6646 5.33538C21.6396 6.31038 22.4115 7.4569 22.9802 8.77496C23.549 10.093 23.8333 11.5013 23.8333 13C23.8333 14.4986 23.549 15.9069 22.9802 17.225C22.4115 18.543 21.6396 19.6895 20.6646 20.6645C19.6896 21.6395 18.5431 22.4114 17.225 22.9802C15.9069 23.5489 14.4986 23.8333 13 23.8333C12.1875 23.8333 11.3931 23.7475 10.6167 23.576C9.84028 23.4045 9.08195 23.1472 8.34167 22.8041L2.97917 24.375C2.56389 24.5013 2.20278 24.4111 1.89583 24.1041C1.58889 23.7972 1.49861 23.4361 1.625 23.0208L3.19583 17.6583ZM4.27917 21.7208L7.74583 20.6916C7.99861 20.6194 8.2559 20.5923 8.51771 20.6104C8.77951 20.6284 9.02778 20.6916 9.2625 20.8C9.84028 21.0888 10.4451 21.3055 11.0771 21.45C11.709 21.5944 12.35 21.6666 13 21.6666C15.4194 21.6666 17.4688 20.827 19.1479 19.1479C20.8271 17.4687 21.6667 15.4194 21.6667 13C21.6667 10.5805 20.8271 8.53121 19.1479 6.85204C17.4688 5.17288 15.4194 4.33329 13 4.33329C10.5806 4.33329 8.53125 5.17288 6.85208 6.85204C5.17292 8.53121 4.33333 10.5805 4.33333 13C4.33333 13.65 4.40556 14.2909 4.55 14.9229C4.69445 15.5548 4.91111 16.1597 5.2 16.7375C5.32639 16.9722 5.3941 17.2204 5.40313 17.4823C5.41215 17.7441 5.38056 18.0013 5.30833 18.2541L4.27917 21.7208Z" fill="#013F03"/>
</svg>
