<svg width="24" height="24" viewBox="0 0 24 24" fill="none" xmlns="http://www.w3.org/2000/svg">
<path d="M14.2904 12L10.2173 7.92689C10.0789 7.78844 10.008 7.6144 10.0048 7.40479C10.0016 7.19519 10.0724 7.01795 10.2173 6.87309C10.3622 6.7282 10.5378 6.65576 10.7442 6.65576C10.9506 6.65576 11.1263 6.7282 11.2711 6.87309L15.7653 11.3673C15.8589 11.4609 15.925 11.5596 15.9634 11.6635C16.0019 11.7673 16.0211 11.8795 16.0211 12C16.0211 12.1205 16.0019 12.2327 15.9634 12.3365C15.925 12.4404 15.8589 12.5391 15.7653 12.6327L11.2711 17.1269C11.1327 17.2654 10.9586 17.3362 10.749 17.3394C10.5394 17.3426 10.3622 17.2718 10.2173 17.1269C10.0724 16.982 10 16.8064 10 16.6C10 16.3936 10.0724 16.218 10.2173 16.0731L14.2904 12Z" fill="#FF5656"/>
</svg>
