<svg width="26" height="26" viewBox="0 0 26 26" fill="none" xmlns="http://www.w3.org/2000/svg">
<path fill-rule="evenodd" clip-rule="evenodd" d="M13.25 6.07505C9.28736 6.07505 6.075 9.28741 6.075 13.25C6.075 14.6038 6.44888 15.8669 7.0984 16.9455C7.31742 17.3092 7.30862 17.6892 7.29146 17.8864C7.27165 18.1139 7.21579 18.339 7.15913 18.5293C7.05519 18.8786 6.89685 19.2752 6.76115 19.6152C6.74954 19.6443 6.73809 19.6729 6.72685 19.7011C6.70362 19.7594 6.6812 19.816 6.65966 19.8707C6.74166 19.845 6.82779 19.8175 6.91812 19.7884C6.95707 19.7758 6.99692 19.7629 7.03751 19.7497C7.39499 19.6339 7.80989 19.4995 8.17903 19.416C8.38743 19.3688 8.62568 19.327 8.86427 19.3208C9.08602 19.315 9.42782 19.3353 9.75791 19.5196C10.7904 20.0961 11.9802 20.425 13.25 20.425C17.2126 20.425 20.425 17.2127 20.425 13.25C20.425 9.28741 17.2126 6.07505 13.25 6.07505ZM3.925 13.25C3.925 8.09999 8.09995 3.92505 13.25 3.92505C18.4001 3.92505 22.575 8.09999 22.575 13.25C22.575 18.4001 18.4001 22.5751 13.25 22.5751C11.6625 22.5751 10.1649 22.1775 8.85425 21.4758C8.80749 21.4818 8.74164 21.493 8.65349 21.513C8.38575 21.5735 8.06771 21.6763 7.68647 21.7996C7.65097 21.811 7.61492 21.8227 7.57831 21.8345C7.18602 21.9611 6.71171 22.112 6.28975 22.1851C6.07792 22.2217 5.81914 22.2503 5.55536 22.2237C5.29586 22.1976 4.91296 22.1054 4.60096 21.7881C4.25557 21.4369 4.2114 21.0052 4.21068 20.7761C4.20991 20.5269 4.25964 20.2853 4.3097 20.0938C4.41056 19.7081 4.58472 19.2689 4.72953 18.9054C4.73689 18.8869 4.74418 18.8686 4.75142 18.8505C4.90038 18.4767 5.02361 18.1675 5.09846 17.916C5.10863 17.8819 5.11687 17.8521 5.12351 17.8264C4.36028 16.4736 3.925 14.9112 3.925 13.25ZM5.14956 17.6999C5.14944 17.7012 5.14928 17.7029 5.14906 17.7047C5.14931 17.6899 5.15067 17.6872 5.14956 17.6999ZM8.93541 21.4703C8.93529 21.4704 8.93182 21.4705 8.92541 21.4699C8.93233 21.4699 8.93553 21.4701 8.93541 21.4703Z" fill="#013F03"/>
</svg>
