<svg width="40" height="40" viewBox="0 0 40 40"  xmlns="http://www.w3.org/2000/svg">
<path fill="currentColor" d="M10.6731 32.5C10.2463 32.5 9.88855 32.3556 9.59982 32.0669C9.31107 31.7781 9.1667 31.4204 9.1667 30.9936V19.3269H7.34307C6.98535 19.3269 6.74261 19.1624 6.61486 18.8333C6.48709 18.5043 6.55995 18.2201 6.83345 17.9807L18.9872 7.02573C19.2627 6.75223 19.6008 6.61548 20.0015 6.61548C20.4022 6.61548 20.7393 6.75223 21.0128 7.02573L33.1665 17.9807C33.44 18.2201 33.5129 18.5043 33.3851 18.8333C33.2574 19.1624 33.0146 19.3269 32.6569 19.3269H30.8333V30.9936C30.8333 31.4204 30.6889 31.7781 30.4002 32.0669C30.1114 32.3556 29.7537 32.5 29.3269 32.5H10.6731ZM11.6667 30H28.3333V17L20 9.50002L11.6667 17V30Z" />
</svg>
