<svg width="32" height="32" viewBox="0 0 32 32" fill="none" xmlns="http://www.w3.org/2000/svg">
<rect width="32" height="32" rx="8" fill="#DCFF4E"/>
<path d="M11 21.35V11C11 10.7167 11.1 10.4792 11.3 10.2875C11.5 10.0958 11.7333 10 12 10C12.0833 10 12.1708 10.0125 12.2625 10.0375C12.3542 10.0625 12.4417 10.1 12.525 10.15L20.675 15.325C20.825 15.425 20.9375 15.55 21.0125 15.7C21.0875 15.85 21.125 16.0083 21.125 16.175C21.125 16.3417 21.0875 16.5 21.0125 16.65C20.9375 16.8 20.825 16.925 20.675 17.025L12.525 22.2C12.4417 22.25 12.3542 22.2875 12.2625 22.3125C12.1708 22.3375 12.0833 22.35 12 22.35C11.7333 22.35 11.5 22.2542 11.3 22.0625C11.1 21.8708 11 21.6333 11 21.35Z" fill="#013F03"/>
</svg>
